<svg xmlns="http://www.w3.org/2000/svg" viewBox="0 0 225.9 243.64"><defs><style>.cls-1{fill:#f76c6c;}</style></defs><title>InInovation</title><g id="Layer_2" data-name="Layer 2"><g id="Layer_1-2" data-name="Layer 1"><path d="M221.4,96.59a4,4,0,1,1,0,8H196.2a4,4,0,1,1,0-8Z"/><path d="M210.77,50.3a3.79,3.79,0,0,1-1.65,5.48L187.31,67a5,5,0,0,1-2.25.53,4.6,4.6,0,0,1-3.9-2,3.77,3.77,0,0,1,1.65-5.48l21.81-11.21A4.81,4.81,0,0,1,210.77,50.3Z"/><path d="M209.12,145.43a3.78,3.78,0,0,1,1.65,5.47,4.64,4.64,0,0,1-3.9,2,4.84,4.84,0,0,1-2.25-.54l-21.81-11.22a3.76,3.76,0,0,1-1.65-5.47,4.81,4.81,0,0,1,6.15-1.47Z"/><path d="M183.15,99.9a57.66,57.66,0,0,1-14.24,37.75C153.21,156.1,145,177.67,145,200v24.17c0,10.73-9.8,19.46-21.84,19.46H102.84c-12,0-21.84-8.73-21.84-19.46V200c0-22.1-8.5-44.21-23.94-62.26A57.67,57.67,0,0,1,42.75,99.32C42.91,83,50.19,67.54,63.24,55.85a74.21,74.21,0,0,1,48.7-18.47c18.93-.24,36.81,6.16,50.29,18S183.15,83,183.15,99.9Zm-21.41,32.9a50.26,50.26,0,0,0,12.41-32.9c0-14.7-6.48-28.49-18.24-38.81S128.59,45.2,112.06,45.4c-33,.41-60,24.64-60.31,54a50.23,50.23,0,0,0,12.48,33.5c16.26,19,25.38,42.27,25.76,65.61h45.92C136.27,174.94,145.19,152.25,161.74,132.8ZM136,224.18v-1.26l-46-4.69v3.24l45.79,4.67A10.59,10.59,0,0,0,136,224.18Zm0-9.33v-8.33H90v3.64Zm-5.65,18.8-38.75-4a13.16,13.16,0,0,0,11.25,5.92h20.31A13.9,13.9,0,0,0,130.34,233.65Z"/><path d="M169.42,13.48A3.78,3.78,0,0,1,171.07,19l-12.6,19.43a4.61,4.61,0,0,1-3.9,2,4.83,4.83,0,0,1-2.24-.54,3.79,3.79,0,0,1-1.65-5.48l12.59-19.43A4.81,4.81,0,0,1,169.42,13.48Z"/><path d="M167,99.9a44.9,44.9,0,0,1-.23,4.5,4.34,4.34,0,0,1-4.48,3.64h-.42a4.19,4.19,0,0,1-4.07-4.37,36.13,36.13,0,0,0,.2-3.76c0-22.1-20.19-40.08-45-40.08a4,4,0,1,1,0-8C142.72,51.81,167,73.38,167,99.9Z"/><path d="M160.23,113.63a3.84,3.84,0,0,1,2.35,5.27,47.33,47.33,0,0,1-6.57,10,4.69,4.69,0,0,1-3.59,1.58,4.86,4.86,0,0,1-2.72-.81,3.72,3.72,0,0,1-.86-5.61,39.93,39.93,0,0,0,5.48-8.37A4.72,4.72,0,0,1,160.23,113.63Z"/><path class="cls-1" d="M136,222.92v1.26a10.59,10.59,0,0,1-.2,2L90,221.47v-3.24Z"/><polygon class="cls-1" points="135.99 206.52 135.99 214.85 90 210.16 90 206.52 135.99 206.52"/><path class="cls-1" d="M91.59,229.7l38.75,4a13.9,13.9,0,0,1-7.19,2H102.84A13.16,13.16,0,0,1,91.59,229.7Z"/><path d="M117.45,4V26.45a4.53,4.53,0,0,1-9,0V4a4.53,4.53,0,0,1,9,0Z"/><path d="M99.21,161.55a4,4,0,0,1-2.88,5.07,5.15,5.15,0,0,1-1.4.2,4.49,4.49,0,0,1-4.27-2.76A115.22,115.22,0,0,0,70,129a48.27,48.27,0,0,1-5-7.1,3.8,3.8,0,0,1,1.93-5.4,4.77,4.77,0,0,1,6.06,1.72,39.75,39.75,0,0,0,4.22,5.92A123.11,123.11,0,0,1,99.21,161.55Z"/><path d="M75.21,34.37a3.78,3.78,0,0,1-1.64,5.48,4.84,4.84,0,0,1-2.25.54,4.62,4.62,0,0,1-3.9-2L54.82,19a3.78,3.78,0,0,1,1.65-5.47,4.81,4.81,0,0,1,6.15,1.46Z"/><path d="M68.45,105.93a4.11,4.11,0,0,1-3.79,4.56,5,5,0,0,1-.67,0,4.37,4.37,0,0,1-4.44-3.41,43.68,43.68,0,0,1-.6-7.67,4.53,4.53,0,0,1,9,.08A36.84,36.84,0,0,0,68.45,105.93Z"/><path d="M43.09,60.05a3.79,3.79,0,0,1,1.65,5.48,4.63,4.63,0,0,1-3.9,2A5,5,0,0,1,38.59,67L16.78,55.78a3.77,3.77,0,0,1-1.65-5.48,4.8,4.8,0,0,1,6.15-1.46Z"/><path d="M44.74,135.68a3.78,3.78,0,0,1-1.65,5.47L21.28,152.37a4.84,4.84,0,0,1-2.25.54,4.61,4.61,0,0,1-3.9-2,3.76,3.76,0,0,1,1.65-5.47l21.81-11.22A4.81,4.81,0,0,1,44.74,135.68Z"/><path d="M29.7,96.59a4,4,0,1,1,0,8H4.5a4,4,0,1,1,0-8Z"/></g></g></svg>