<svg xmlns="http://www.w3.org/2000/svg" viewBox="0 0 256.53 310.64"><defs><style>.cls-1{fill:#3d70b2;}</style></defs><title>Asset 1</title><g id="Layer_2" data-name="Layer 2"><g id="Layer_1-2" data-name="Layer 1"><path d="M251.42,123.16a5.11,5.11,0,0,1,0,10.22H222.81a5.11,5.11,0,1,1,0-10.22Z"/><path d="M239.35,64.13a5.13,5.13,0,0,1-1.87,7l-24.77,14.3a5.17,5.17,0,0,1-2.56.68,5.1,5.1,0,0,1-2.55-9.53l24.77-14.3A5.1,5.1,0,0,1,239.35,64.13Z"/><path d="M237.48,185.42a5.11,5.11,0,1,1-5.11,8.85L207.6,180a5.11,5.11,0,1,1,5.11-8.85Z"/><path d="M208,127.37a79,79,0,0,1-16.16,48.13C174,199,164.65,226.53,164.65,255v30.83a24.83,24.83,0,0,1-24.8,24.8H116.79A24.84,24.84,0,0,1,92,285.84V255A132,132,0,0,0,64.8,175.62a79.72,79.72,0,0,1,119.43-105A79.12,79.12,0,0,1,208,127.37Zm-24.3,41.95A69.49,69.49,0,0,0,127.26,57.89c-37.43.52-68.16,31.41-68.49,68.84a68.86,68.86,0,0,0,14.17,42.71,142.44,142.44,0,0,1,29.25,83.65h52.15C154.75,223,164.88,194.12,183.68,169.32ZM154.43,285.84v-1.62l-52.23-6v4.13l52,6A14.59,14.59,0,0,0,154.43,285.84Zm0-11.91V263.31H102.2V268Zm-6.42,24-44-5a14.59,14.59,0,0,0,12.77,7.55h23.06A14.48,14.48,0,0,0,148,297.91Z"/><path d="M192.4,17.19a5.1,5.1,0,0,1,1.87,7L180,48.94a5.11,5.11,0,0,1-4.43,2.55,5,5,0,0,1-2.55-.68,5.11,5.11,0,0,1-1.88-7l14.31-24.78A5.1,5.1,0,0,1,192.4,17.19Z"/><path d="M189.59,127.37c0,1.92-.09,3.85-.26,5.74a5.12,5.12,0,0,1-5.09,4.64,3.77,3.77,0,0,1-.47,0,5.11,5.11,0,0,1-4.62-5.56c.14-1.58.22-3.19.22-4.8a51.16,51.16,0,0,0-51.1-51.09,5.11,5.11,0,0,1,0-10.22A61.38,61.38,0,0,1,189.59,127.37Z"/><path d="M182,144.87a5.11,5.11,0,0,1,2.67,6.72,60.66,60.66,0,0,1-7.47,12.79,5.07,5.07,0,0,1-4.07,2,5.18,5.18,0,0,1-3.09-1,5.11,5.11,0,0,1-1-7.16,50.87,50.87,0,0,0,6.23-10.67A5.11,5.11,0,0,1,182,144.87Z"/><path class="cls-1" d="M154.43,284.22v1.62a14.59,14.59,0,0,1-.23,2.49l-52-6v-4.13Z"/><polygon class="cls-1" points="154.43 263.31 154.43 273.93 102.2 267.95 102.2 263.31 154.43 263.31"/><path class="cls-1" d="M104,292.87l44,5a14.48,14.48,0,0,1-8.16,2.51H116.79A14.59,14.59,0,0,1,104,292.87Z"/><path d="M133.38,5.11V33.73a5.11,5.11,0,1,1-10.22,0V5.11a5.11,5.11,0,1,1,10.22,0Z"/><path d="M112.66,206a5.11,5.11,0,0,1-3.26,6.45,5.2,5.2,0,0,1-1.6.26,5.12,5.12,0,0,1-4.85-3.51,151.8,151.8,0,0,0-23.51-44.7,61.29,61.29,0,0,1-5.73-9,5.11,5.11,0,0,1,9.08-4.69,51.58,51.58,0,0,0,4.78,7.55A162.13,162.13,0,0,1,112.66,206Z"/><path d="M85.41,43.83a5.11,5.11,0,0,1-8.85,5.11L62.26,24.16a5.11,5.11,0,0,1,8.85-5.11Z"/><path d="M77.73,135.06a5.11,5.11,0,0,1-4.3,5.81,4.87,4.87,0,0,1-.76.06,5.11,5.11,0,0,1-5-4.36A62.26,62.26,0,0,1,67,126.8a5.11,5.11,0,0,1,10.22.1A51.49,51.49,0,0,0,77.73,135.06Z"/><path d="M48.94,76.57a5.11,5.11,0,0,1-5.11,8.85L19.05,71.12a5.11,5.11,0,1,1,5.11-8.85Z"/><path d="M50.81,173a5.12,5.12,0,0,1-1.87,7l-24.78,14.3a5,5,0,0,1-2.55.69,5.11,5.11,0,0,1-2.56-9.54l24.78-14.3A5.1,5.1,0,0,1,50.81,173Z"/><path d="M33.73,123.16a5.11,5.11,0,1,1,0,10.22H5.11a5.11,5.11,0,1,1,0-10.22Z"/></g></g></svg>