<svg xmlns="http://www.w3.org/2000/svg" viewBox="0 0 255.01 233.06"><defs><style>.cls-1{fill:#3d70b2;}.cls-2{fill:#fff;}.cls-3{fill:#f76c6c;}</style></defs><title>Inplatform</title><g id="Layer_2" data-name="Layer 2"><g id="Layer_1-2" data-name="Layer 1"><path d="M255,95.43V199.07a14.48,14.48,0,0,1-14.32,14.59H184.45v8.64a10.67,10.67,0,0,1-10.56,10.76H129a10.68,10.68,0,0,1-10.56-10.76V181.25H60.26a4.26,4.26,0,0,1,0-8.52H70.42l6.77-7.43H18A18.18,18.18,0,0,1,0,147V18.33A18.18,18.18,0,0,1,18,0H226.87a18.19,18.19,0,0,1,18,18.33V81.48A14.58,14.58,0,0,1,255,95.43Zm-8.36,103.64v-1.16h-62.2v7.23h56.24A6,6,0,0,0,246.65,199.07Zm0-9.68V105.11H150.54v26.28h23.35a10.67,10.67,0,0,1,10.56,10.76v47.24Zm0-92.8V95.43a6,6,0,0,0-6-6.07H156.5a6,6,0,0,0-6,6.07v1.16ZM236.51,80.84V22.59H8.36V142.14H118.41A10.68,10.68,0,0,1,129,131.39h13.21v-36A14.48,14.48,0,0,1,156.5,80.84ZM9.32,14.08H235.54a9.62,9.62,0,0,0-8.67-5.57H18A9.63,9.63,0,0,0,9.32,14.08ZM176.09,222.3v-5.59H126.77v5.59a2.22,2.22,0,0,0,2.2,2.24h44.92A2.22,2.22,0,0,0,176.09,222.3Zm0-14.1V156.26H126.77V208.2Zm0-60.45v-5.6a2.22,2.22,0,0,0-2.2-2.24H129a2.22,2.22,0,0,0-2.2,2.24v5.6Zm-57.68,25V165.3H88.6l-6.78,7.43Zm0-15.94v-6.14H9.07A9.64,9.64,0,0,0,18,156.79Z"/><path class="cls-1" d="M246.65,197.91v1.16a6,6,0,0,1-6,6.07H184.45v-7.23Z"/><path class="cls-2" d="M246.65,105.11v84.28h-62.2V142.15a10.67,10.67,0,0,0-10.56-10.76H150.54V105.11Z"/><path class="cls-1" d="M246.65,95.43v1.16H150.54V95.43a6,6,0,0,1,6-6.07h84.19A6,6,0,0,1,246.65,95.43Z"/><path class="cls-2" d="M236.51,22.59V80.84h-80a14.48,14.48,0,0,0-14.32,14.59v36H129a10.68,10.68,0,0,0-10.56,10.75H8.36V22.59Z"/><path class="cls-3" d="M235.54,14.08H9.32A9.63,9.63,0,0,1,18,8.51H226.87A9.62,9.62,0,0,1,235.54,14.08Z"/><path class="cls-1" d="M176.09,216.71v5.59a2.22,2.22,0,0,1-2.2,2.24H129a2.22,2.22,0,0,1-2.2-2.24v-5.59Z"/><rect class="cls-2" x="126.77" y="156.26" width="49.33" height="51.94"/><path class="cls-1" d="M176.09,142.15v5.6H126.77v-5.6a2.22,2.22,0,0,1,2.2-2.24h44.92A2.22,2.22,0,0,1,176.09,142.15Z"/><polygon class="cls-3" points="118.41 165.3 118.41 172.73 81.82 172.73 88.6 165.3 118.41 165.3"/><path class="cls-3" d="M118.41,150.65v6.14H18a9.64,9.64,0,0,1-8.93-6.14Z"/></g></g></svg>