<svg xmlns="http://www.w3.org/2000/svg" viewBox="0 0 287.04 212.79"><defs><style>.cls-1{fill:#f76c6c;}.cls-2{fill:#3d70b2;}</style></defs><title>Inreso</title><g id="Layer_2" data-name="Layer 2"><g id="Layer_1-2" data-name="Layer 1"><path d="M287,58V207.82a5,5,0,0,1-5,5H73.91a5,5,0,0,1-5-5V159.76H5a5,5,0,0,1-5-5V5A5,5,0,0,1,5,0H213.13a5,5,0,0,1,5,5V53h64A5,5,0,0,1,287,58ZM277.1,202.85V92.34H148.9V202.85Zm0-120.45V63H78.89V82.4ZM208.15,53V39.31H9.94V149.82h59V58a5,5,0,0,1,5-5Zm0-23.66V9.94H9.94V29.37ZM139,202.85V92.34H78.89V202.85Z"/><path class="cls-1" d="M277.1,63V82.4H78.89V63ZM118.77,72.69a5,5,0,1,0-1.45,3.51A5,5,0,0,0,118.77,72.69Zm-12.31,0A5,5,0,1,0,105,76.2,5,5,0,0,0,106.46,72.69Zm-12.31,0a5,5,0,1,0-1.46,3.51A5,5,0,0,0,94.15,72.69Z"/><path d="M236.66,102.56a5,5,0,0,1,0,9.94H162a5,5,0,1,1,0-9.94Z"/><path d="M236.66,120.46a5,5,0,0,1,0,9.94H162a5,5,0,1,1,0-9.94Z"/><path d="M236.66,138.36a5,5,0,0,1,0,9.94H162a5,5,0,1,1,0-9.94Z"/><path class="cls-2" d="M208.15,9.94V29.37H9.94V9.94ZM49.83,19.66a5,5,0,1,0-1.46,3.51A5,5,0,0,0,49.83,19.66Zm-12.32,0a5,5,0,1,0-1.45,3.51A5,5,0,0,0,37.51,19.66Zm-12.31,0a5,5,0,0,0-8.48-3.52,5,5,0,1,0,7,7A5,5,0,0,0,25.2,19.66Z"/><path d="M124.83,102.56a5,5,0,1,1,0,9.94H93a5,5,0,0,1,0-9.94Z"/><path d="M124.83,120.46a5,5,0,1,1,0,9.94H93a5,5,0,1,1,0-9.94Z"/><path d="M124.83,138.36a5,5,0,1,1,0,9.94H93a5,5,0,1,1,0-9.94Z"/><path d="M117.32,69.17a5,5,0,1,1-3.52-1.45A5,5,0,0,1,117.32,69.17Z"/><path d="M105,69.17a5,5,0,1,1-3.51-1.45A5,5,0,0,1,105,69.17Z"/><path d="M92.69,69.17a5,5,0,1,1-3.52-1.45A5,5,0,0,1,92.69,69.17Z"/><path d="M55.89,49.53a5,5,0,0,1,0,9.94H24.07a5,5,0,1,1,0-9.94Z"/><path d="M55.89,67.42a5,5,0,0,1,0,10H24.07a5,5,0,0,1,0-10Z"/><path d="M55.89,85.32a5,5,0,0,1,0,10H24.07a5,5,0,0,1,0-10Z"/><path d="M48.37,16.14a5,5,0,1,1-3.51-1.46A5,5,0,0,1,48.37,16.14Z"/><path d="M36.06,16.14a5,5,0,1,1-3.52-1.46A5,5,0,0,1,36.06,16.14Z"/><path d="M23.75,16.14a5,5,0,1,1-8.49,3.52,5,5,0,0,1,8.49-3.52Z"/></g></g></svg>