<svg xmlns="http://www.w3.org/2000/svg" viewBox="0 0 291.58 284.2"><defs><style>.cls-1{fill:#f76c6c;}</style></defs><title>Store</title><g id="Layer_2" data-name="Layer 2"><g id="Layer_1-2" data-name="Layer 1"><path d="M291.58,202.6v76.06a5.54,5.54,0,0,1-5.53,5.54H5.54A5.53,5.53,0,0,1,0,278.66V202.6a5.53,5.53,0,0,1,5.54-5.53H21.68v-11.4H5.54A5.53,5.53,0,0,1,0,180.13V104.07a5.53,5.53,0,0,1,5.54-5.54H21.68V87.14H5.54A5.54,5.54,0,0,1,0,81.6V5.54A5.53,5.53,0,0,1,5.54,0H286.05a5.54,5.54,0,0,1,5.53,5.54V81.6a5.54,5.54,0,0,1-5.53,5.54H269.9V98.53h16.15a5.54,5.54,0,0,1,5.53,5.54v76.06a5.54,5.54,0,0,1-5.53,5.54H269.9v11.4h16.15A5.54,5.54,0,0,1,291.58,202.6Zm-11.07,70.53v-65H251.6v65Zm0-98.53v-65H251.6v65Zm0-98.54v-65H251.6v65Zm-21.68,121v-11.4H32.75v11.4Zm0-98.54V87.14H32.75V98.53Zm-18.31,174.6v-65H211.73v65Zm0-98.53v-65H211.73v65Zm0-98.54v-65H211.73v65ZM200.65,273.13v-65H11.07v65Zm0-98.53v-65H11.07v65Zm0-98.54v-65H11.07v65Z"/><rect class="cls-1" x="251.6" y="208.14" width="28.91" height="64.99"/><rect class="cls-1" x="251.6" y="109.61" width="28.91" height="64.99"/><rect class="cls-1" x="251.6" y="11.07" width="28.91" height="64.99"/><path class="cls-1" d="M200.65,208.14v65H11.07v-65ZM55.36,240.63a5.53,5.53,0,1,0-1.62,3.92A5.58,5.58,0,0,0,55.36,240.63Zm-17.71,0a5.54,5.54,0,0,0-9.46-3.91,5.54,5.54,0,0,0,3.92,9.45,5.55,5.55,0,0,0,5.54-5.54Z"/><path class="cls-1" d="M200.65,109.61v65H11.07v-65ZM55.36,142.1A5.55,5.55,0,1,0,53.74,146,5.56,5.56,0,0,0,55.36,142.1Zm-17.71,0a5.54,5.54,0,0,0-9.46-3.91,5.54,5.54,0,0,0,3.92,9.45,5.57,5.57,0,0,0,5.54-5.54Z"/><path class="cls-1" d="M200.65,11.07v65H11.07v-65ZM55.36,43.57a5.53,5.53,0,1,0-1.62,3.91A5.54,5.54,0,0,0,55.36,43.57Zm-17.71,0a5.54,5.54,0,0,0-9.46-3.91,5.53,5.53,0,1,0,9.46,3.91Z"/><path d="M53.74,39.66A5.52,5.52,0,1,1,49.83,38,5.54,5.54,0,0,1,53.74,39.66Z"/><path d="M53.74,138.19a5.52,5.52,0,1,1-3.91-1.63A5.56,5.56,0,0,1,53.74,138.19Z"/><path d="M53.74,236.72a5.54,5.54,0,1,1-3.91-1.62A5.58,5.58,0,0,1,53.74,236.72Z"/><path d="M36,39.66a5.53,5.53,0,0,1-3.91,9.44,5.54,5.54,0,0,1,0-11.07A5.53,5.53,0,0,1,36,39.66Z"/><path d="M36,138.19A5.53,5.53,0,1,1,28.19,146a5.54,5.54,0,0,1,3.92-9.45A5.53,5.53,0,0,1,36,138.19Z"/><path d="M36,236.72a5.54,5.54,0,0,1-7.83,7.83,5.54,5.54,0,0,1,3.92-9.45A5.56,5.56,0,0,1,36,236.72Z"/></g></g></svg>