<svg xmlns="http://www.w3.org/2000/svg" viewBox="0 0 344.49 309.06"><defs><style>.cls-1{fill:#f76c6c;}.cls-2{fill:#fff;}.cls-3{fill:#3d70b2;}</style></defs><title>Asset 2</title><g id="Layer_2" data-name="Layer 2"><g id="Layer_1-2" data-name="Layer 1"><path d="M344.49,126.55V264a19.36,19.36,0,0,1-19.33,19.34h-76v11.46a14.28,14.28,0,0,1-14.26,14.27H174.23A14.28,14.28,0,0,1,160,294.79V240.35H81.41a5.65,5.65,0,0,1,0-11.29H95.13l9.15-9.85h-80A24.34,24.34,0,0,1,0,194.9V24.31A24.34,24.34,0,0,1,24.31,0H306.48a24.34,24.34,0,0,1,24.31,24.31v83.74A19.38,19.38,0,0,1,344.49,126.55ZM333.2,264v-1.55h-84V272h76A8.06,8.06,0,0,0,333.2,264Zm0-12.84V139.38H203.37v34.86h31.55a14.28,14.28,0,0,1,14.26,14.27v62.64Zm0-123.06v-1.54a8.06,8.06,0,0,0-8-8H211.42a8.06,8.06,0,0,0-8,8v1.54Zm-13.7-20.88V30H11.29V188.49H160a14.29,14.29,0,0,1,14.27-14.25h17.85V126.55a19.37,19.37,0,0,1,19.34-19.34ZM12.59,18.67h305.6a13,13,0,0,0-11.71-7.38H24.31A13,13,0,0,0,12.59,18.67Zm225.3,276.12v-7.41H171.25v7.41a3,3,0,0,0,3,3h60.69A3,3,0,0,0,237.89,294.79Zm0-18.7V207.22H171.25v68.87Zm0-80.16v-7.42a3,3,0,0,0-3-3H174.23a3,3,0,0,0-3,3v7.42ZM160,229.06v-9.85H119.69l-9.16,9.85Zm0-21.14v-8.14H12.25a13,13,0,0,0,12.06,8.14Z"/><path class="cls-1" d="M333.2,262.44V264a8.06,8.06,0,0,1-8,8.05h-76v-9.6Z"/><path class="cls-2" d="M333.2,139.38V251.15h-84V188.51a14.28,14.28,0,0,0-14.26-14.27H203.37V139.38Z"/><path class="cls-1" d="M333.2,126.55v1.54H203.37v-1.54a8.06,8.06,0,0,1,8-8H325.16A8.06,8.06,0,0,1,333.2,126.55Z"/><path class="cls-2" d="M319.5,30v77.25H211.42a19.37,19.37,0,0,0-19.34,19.34v47.69H174.23A14.29,14.29,0,0,0,160,188.49H11.29V30Z"/><path class="cls-3" d="M318.19,18.67H12.59a13,13,0,0,1,11.72-7.38H306.48A13,13,0,0,1,318.19,18.67Z"/><path class="cls-1" d="M237.89,287.38v7.41a3,3,0,0,1-3,3H174.23a3,3,0,0,1-3-3v-7.41Z"/><rect class="cls-2" x="171.25" y="207.22" width="66.64" height="68.87"/><path class="cls-1" d="M237.89,188.51v7.42H171.25v-7.42a3,3,0,0,1,3-3h60.69A3,3,0,0,1,237.89,188.51Z"/><polygon class="cls-3" points="159.96 219.21 159.96 229.06 110.53 229.06 119.69 219.21 159.96 219.21"/><path class="cls-3" d="M160,199.78v8.14H24.31a13,13,0,0,1-12.06-8.14Z"/></g></g></svg>