<svg xmlns="http://www.w3.org/2000/svg" viewBox="0 0 269.04 199.45"><defs><style>.cls-1{fill:#3d70b2;}.cls-2{fill:#f76c6c;}</style></defs><title>Asset 3</title><g id="Layer_2" data-name="Layer 2"><g id="Layer_1-2" data-name="Layer 1"><path d="M269,54.37V194.79a4.66,4.66,0,0,1-4.66,4.66H69.28a4.66,4.66,0,0,1-4.66-4.66v-45h-60A4.66,4.66,0,0,1,0,145.08V4.66A4.66,4.66,0,0,1,4.66,0h195.1a4.66,4.66,0,0,1,4.66,4.66V49.71h60A4.66,4.66,0,0,1,269,54.37Zm-9.32,135.76V86.55H139.57V190.13Zm0-112.9V59H73.94v18.2ZM195.1,49.71V36.85H9.32V140.42h55.3v-86a4.65,4.65,0,0,1,4.66-4.66Zm0-22.18V9.32H9.32V27.53Zm-64.85,162.6V86.55H73.94V190.13Z"/><path class="cls-1" d="M259.72,59v18.2H73.94V59Zm-148.39,9.1A4.68,4.68,0,1,0,110,71.42,4.7,4.7,0,0,0,111.33,68.13Zm-11.55,0a4.66,4.66,0,1,0-9.31,0,4.66,4.66,0,1,0,9.31,0Zm-11.54,0a4.65,4.65,0,0,0-1.36-3.29,4.66,4.66,0,1,0,1.36,3.29Z"/><path d="M221.82,96.13a4.66,4.66,0,0,1,0,9.32h-70a4.66,4.66,0,0,1,0-9.32Z"/><path d="M221.82,112.9a4.66,4.66,0,0,1,0,9.32h-70a4.66,4.66,0,0,1,0-9.32Z"/><path d="M221.82,129.68a4.66,4.66,0,0,1,0,9.32h-70a4.66,4.66,0,0,1,0-9.32Z"/><path class="cls-2" d="M195.1,9.32V27.53H9.32V9.32ZM46.71,18.42a4.66,4.66,0,1,0-1.37,3.3A4.67,4.67,0,0,0,46.71,18.42Zm-11.55,0a4.64,4.64,0,1,0-1.36,3.3A4.69,4.69,0,0,0,35.16,18.42Zm-11.54,0a4.64,4.64,0,1,0-1.36,3.3A4.66,4.66,0,0,0,23.62,18.42Z"/><path d="M117,96.13a4.66,4.66,0,0,1,0,9.32H87.18a4.66,4.66,0,0,1,0-9.32Z"/><path d="M117,112.9a4.66,4.66,0,0,1,0,9.32H87.18a4.66,4.66,0,0,1,0-9.32Z"/><path d="M117,129.68a4.66,4.66,0,0,1,0,9.32H87.18a4.66,4.66,0,0,1,0-9.32Z"/><path d="M110,64.83a4.67,4.67,0,1,1-3.29-1.36A4.7,4.7,0,0,1,110,64.83Z"/><path d="M98.42,64.83a4.67,4.67,0,0,1,0,6.59,4.66,4.66,0,1,1,0-6.59Z"/><path d="M86.88,64.84a4.66,4.66,0,0,1,0,6.58,4.66,4.66,0,1,1,0-6.58Z"/><path d="M52.39,46.42a4.66,4.66,0,0,1,0,9.32H22.56a4.66,4.66,0,0,1,0-9.32Z"/><path d="M52.39,63.2a4.66,4.66,0,0,1,0,9.32H22.56a4.66,4.66,0,0,1,0-9.32Z"/><path d="M52.39,80a4.66,4.66,0,0,1,0,9.32H22.56a4.66,4.66,0,1,1,0-9.32Z"/><path d="M45.34,15.13a4.65,4.65,0,1,1-3.29-1.37A4.67,4.67,0,0,1,45.34,15.13Z"/><path d="M33.8,15.13a4.65,4.65,0,1,1-3.3-1.37A4.69,4.69,0,0,1,33.8,15.13Z"/><path d="M22.26,15.13A4.65,4.65,0,1,1,19,13.76,4.66,4.66,0,0,1,22.26,15.13Z"/></g></g></svg>